<svg version="1.2" xmlns="http://www.w3.org/2000/svg" viewBox="0 0 200 200" width="200" height="200">
	<title>prize1-svg</title>
	<style>
		tspan { white-space:pre } 
		.s0 { fill: #00ffff } 
		.s1 { fill: #00ff00 } 
		.s2 { fill: #794f1b } 
		.s3 { fill: #2e1d0a } 
		.s4 { fill: #f2480d } 
		.s5 { fill: #1967cc } 
		.s6 { fill: #1ab2d6 } 
		.s7 { fill: #ffffff } 
		.s8 { fill: #f2c53d } 
		.s9 { fill: #b6360a } 
		.t10 { font-size: 24px;fill: #ffffff;font-weight: 400;font-family: "DejaVuSans", "DejaVu Sans" } 
		.s11 { fill: #0000ff } 
	</style>
	<path id="Shape 1" class="s0" d="m0 0h200v200h-200z"/>
	<path id="Background" class="s1" d="m17 197c-8.3 0-15-6.7-15-15 0-8.3 6.7-15 15-15 8.3 0 15 6.7 15 15 0 8.3-6.7 15-15 15z"/>
	<path id="&lt;Path&gt;" class="s2" d="m81.5 36.7v13.9 14c0 2.4 2 4.4 4.5 4.4 2.4 0 4.4-2 4.4-4.4v-14-13.9c0-2.4-2-4.4-4.4-4.4-2.5 0-4.5 2-4.5 4.4z"/>
	<path id="&lt;Path&gt;" class="s2" d="m111 36.7v13.9 14c0 2.4 2 4.4 4.4 4.4 2.4 0 4.4-2 4.4-4.4v-14-13.9c0-2.4-2-4.4-4.4-4.4-2.4 0-4.4 2-4.4 4.4z"/>
	<path id="&lt;Path&gt;" class="s3" d="m145 142.1c0 14.1-11.4 12.6-25.5 12.6h-38c-14.1 0-25.5 1.5-25.5-12.6v-63.7c0-14.1 11.4-25.6 25.5-25.6h38c14.1 0 25.5 11.5 25.5 25.6z"/>
	<path id="&lt;Path&gt;" class="s4" d="m100.5 103.5c-31.7 0-57.4 25.7-57.4 57.4h114.8c0-31.7-25.7-57.4-57.4-57.4z"/>
	<path id="&lt;Path&gt;" class="s5" d="m100.5 123.5c-13.1 0-23.7 10.6-23.7 23.7h47.4c0-13.1-10.6-23.7-23.7-23.7z"/>
	<path id="&lt;Path&gt;" class="s3" d="m100.5 135.3c-6.5 0-11.8 5.3-11.8 11.8h23.6c0-6.5-5.3-11.8-11.8-11.8z"/>
	<path id="&lt;Path&gt;" class="s6" d="m124.2 160.9h-47.4v-13.7h47.4z"/>
	<path id="&lt;Path&gt;" class="s3" d="m89.6 168h-5.5v-7.1h5.5z"/>
	<path id="&lt;Path&gt;" class="s3" d="m116.8 168h-5.5v-7.1h5.5z"/>
	<path id="&lt;Path&gt;" class="s7" d="m100.5 99.6c-1.4 0-2.5 1.1-2.5 2.5l2.5 11.2 2.5-11.2c0-1.4-1.1-2.5-2.5-2.5z"/>
	<path id="&lt;Path&gt;" class="s7" d="m89.9 100.5c-1.4 0.3-2.3 1.6-2 3l4.4 10.5 0.5-11.4c-0.2-1.4-1.5-2.3-2.9-2.1z"/>
	<path id="&lt;Path&gt;" class="s7" d="m79.6 103.3c-1.3 0.5-2 1.9-1.5 3.2l6.2 9.6-1.4-11.3c-0.5-1.3-2-2-3.3-1.5z"/>
	<path id="&lt;Path&gt;" class="s7" d="m70 107.8c-1.2 0.7-1.6 2.2-0.9 3.4l7.7 8.4-3.4-10.9c-0.6-1.2-2.2-1.6-3.4-0.9z"/>
	<path id="&lt;Path&gt;" class="s7" d="m61.3 113.9c-1.1 0.9-1.2 2.5-0.3 3.5l9.1 6.9-5.3-10.1c-0.8-1.1-2.4-1.2-3.5-0.3z"/>
	<path id="&lt;Path&gt;" class="s3" d="m53.8 121.4c-0.9 1.1-0.8 2.7 0.3 3.6l10.1 5.2-6.9-9.1c-1-0.9-2.6-0.8-3.5 0.3z"/>
	<path id="&lt;Path&gt;" class="s3" d="m47.7 130.1c-0.7 1.2-0.3 2.8 0.9 3.5l10.9 3.3-8.4-7.7c-1.2-0.7-2.7-0.3-3.4 0.9z"/>
	<path id="&lt;Path&gt;" class="s3" d="m43.2 139.8c-0.5 1.3 0.2 2.7 1.5 3.2l11.3 1.4-9.6-6.1c-1.3-0.5-2.8 0.1-3.2 1.5z"/>
	<path id="&lt;Path&gt;" class="s3" d="m40.4 150c-0.2 1.4 0.7 2.7 2.1 3l11.3-0.6-10.5-4.4c-1.3-0.3-2.6 0.7-2.9 2z"/>
	<path id="&lt;Path&gt;" class="s3" d="m39.5 160.6c0 1.4 1.1 2.6 2.5 2.6l11.1-2.6-11.1-2.5c-1.4 0-2.5 1.1-2.5 2.5z"/>
	<path id="&lt;Path&gt;" class="s3" d="m161.5 160.6c0-1.4-1.1-2.5-2.5-2.5l-11.1 2.5 11.1 2.6c1.4 0 2.5-1.2 2.5-2.6z"/>
	<path id="&lt;Path&gt;" class="s3" d="m160.6 150c-0.3-1.3-1.6-2.3-2.9-2l-10.5 4.4 11.3 0.6c1.4-0.3 2.3-1.6 2.1-3z"/>
	<path id="&lt;Path&gt;" class="s3" d="m157.8 139.8c-0.4-1.4-1.9-2-3.2-1.6l-9.6 6.2 11.3-1.4c1.3-0.5 2-1.9 1.5-3.2z"/>
	<path id="&lt;Path&gt;" class="s3" d="m153.3 130.1c-0.7-1.2-2.2-1.6-3.4-0.9l-8.4 7.7 10.9-3.3c1.2-0.7 1.7-2.3 0.9-3.5z"/>
	<path id="&lt;Path&gt;" class="s3" d="m147.2 121.4c-0.9-1.1-2.4-1.2-3.5-0.3l-6.9 9.1 10.1-5.2c1.1-0.9 1.3-2.5 0.3-3.6z"/>
	<path id="&lt;Path&gt;" class="s7" d="m139.7 113.9c-1-0.9-2.6-0.8-3.5 0.3l-5.2 10.1 9-6.9c0.9-1 0.8-2.6-0.3-3.5z"/>
	<path id="&lt;Path&gt;" class="s7" d="m131 107.8c-1.2-0.7-2.7-0.3-3.4 0.9l-3.4 10.9 7.7-8.4c0.7-1.2 0.3-2.7-0.9-3.4z"/>
	<path id="&lt;Path&gt;" class="s7" d="m121.4 103.3c-1.3-0.5-2.8 0.2-3.3 1.5l-1.4 11.3 6.2-9.6c0.5-1.3-0.2-2.7-1.5-3.2z"/>
	<path id="&lt;Path&gt;" class="s7" d="m111.1 100.5c-1.4-0.2-2.7 0.7-2.9 2.1l0.5 11.4 4.4-10.5c0.3-1.4-0.6-2.7-2-3z"/>
	<path id="&lt;Path&gt;" class="s8" d="m86.9 151.1v6.8c1.9 0 3.4-1.5 3.4-3.4 0-1.8-1.5-3.4-3.4-3.4z"/>
	<path id="&lt;Path&gt;" class="s7" d="m83.5 154.5c0 1.9 1.5 3.4 3.4 3.4v-6.8c-1.9 0-3.4 1.6-3.4 3.4z"/>
	<path id="&lt;Path&gt;" class="s8" d="m114 151.1v6.8c1.9 0 3.4-1.5 3.4-3.4 0-1.8-1.5-3.4-3.4-3.4z"/>
	<path id="&lt;Path&gt;" class="s7" d="m110.6 154.5c0 1.9 1.6 3.4 3.4 3.4v-6.8c-1.8 0-3.4 1.6-3.4 3.4z"/>
	<path id="&lt;Path&gt;" class="s8" d="m76.3 99.3c7.6 0 13.7-6.2 13.7-13.7h-27.4c0 7.5 6.2 13.7 13.7 13.7z"/>
	<path id="&lt;Path&gt;" class="s3" d="m76.3 93.3c4.3 0 7.8-3.4 7.8-7.7h-15.6c0 4.3 3.5 7.7 7.8 7.7z"/>
	<path id="&lt;Path&gt;" class="s8" d="m124.2 99.3c7.5 0 13.7-6.2 13.7-13.7h-27.4c0 7.5 6.1 13.7 13.7 13.7z"/>
	<path id="&lt;Path&gt;" class="s3" d="m124.2 93.3c4.3 0 7.8-3.4 7.8-7.7h-15.6c0 4.3 3.5 7.7 7.8 7.7z"/>
	<path id="&lt;Path&gt;" class="s9" d="m90.2 76.7h-13.9v8.8h13.9c2.5 0 4.5-2 4.5-4.4 0-2.5-2-4.4-4.5-4.4z"/>
	<path id="&lt;Path&gt;" class="s4" d="m62.4 76.7c-2.5 0-4.4 1.9-4.4 4.4 0 2.4 1.9 4.4 4.4 4.4h13.9v-8.8z"/>
	<path id="&lt;Path&gt;" class="s4" d="m110.3 76.7c-2.5 0-4.4 1.9-4.4 4.4 0 2.4 1.9 4.4 4.4 4.4h13.9v-8.8z"/>
	<path id="&lt;Path&gt;" class="s9" d="m138.1 76.7h-13.9v8.8h13.9c2.5 0 4.4-2 4.4-4.4 0-2.5-1.9-4.4-4.4-4.4z"/>
	<path id="Shape 2" class="s0" d="m394 12h100v100h-100z"/>
	<text id="4" style="transform: matrix(1,0,0,1,10,30)" >
		<tspan x="0" y="0" class="t10">4
</tspan>
	</text>
	<text id="5" style="transform: matrix(1,0,0,1,9,190)" >
		<tspan x="0" y="0" class="t10">5
</tspan>
	</text>
	<path id="Background" class="s11" d="m51 197c-8.3 0-15-6.7-15-15 0-8.3 6.7-15 15-15 8.3 0 15 6.7 15 15 0 8.3-6.7 15-15 15z"/>
	<text id="4" style="transform: matrix(1,0,0,1,44,190)" >
		<tspan x="0" y="0" class="t10">4
</tspan>
	</text>
</svg>